<svg width="720" height="720" viewBox="0 0 720 720" fill="none" xmlns="http://www.w3.org/2000/svg">
<circle cx="360" cy="360" r="360" fill="#41329C"/>
<path d="M605.768 163.312C605.768 135.201 607.1 107.112 607.1 79" stroke="white" stroke-width="5" stroke-linecap="round" stroke-linejoin="round"/>
<path d="M577.954 157.878C596.796 133.339 614.429 107.932 634.31 84.2153" stroke="white" stroke-width="5" stroke-linecap="round" stroke-linejoin="round"/>
<path d="M580.272 112.609C593.968 114.043 607.936 118.867 620.456 124.418C624.172 126.066 627.899 128.633 631.747 129.916" stroke="white" stroke-width="5" stroke-linecap="round" stroke-linejoin="round"/>
<path d="M571 129.916C594.693 124.284 617.479 114.244 642 112.609" stroke="white" stroke-width="5" stroke-linecap="round" stroke-linejoin="round"/>
<path d="M583.169 98.1226C599.845 111.739 615.671 127.148 629.319 143.829" stroke="white" stroke-width="5" stroke-linecap="round" stroke-linejoin="round"/>
<path d="M79.5682 319H83.9318L91.6364 291.182H91.9091L99.6136 319H103.977L113.523 284.091H109.227L101.932 312.523H101.591L94.1591 284.091H89.3864L81.9545 312.523H81.6136L74.3182 284.091H70.0227L79.5682 319ZM126.784 319.545C132.102 319.545 135.989 316.886 137.216 312.932L133.33 311.841C132.307 314.568 129.938 315.932 126.784 315.932C122.062 315.932 118.807 312.881 118.619 307.273H137.625V305.568C137.625 295.818 131.83 292.477 126.375 292.477C119.284 292.477 114.58 298.068 114.58 306.114C114.58 314.159 119.216 319.545 126.784 319.545ZM118.619 303.795C118.892 299.722 121.773 296.091 126.375 296.091C130.739 296.091 133.534 299.364 133.534 303.795H118.619ZM147.767 284.091H143.744V319H147.767V284.091ZM165.771 319.545C171.567 319.545 175.385 316 176.067 311.364H172.044C171.294 314.227 168.908 315.932 165.771 315.932C160.999 315.932 157.93 311.977 157.93 305.909C157.93 299.977 161.067 296.091 165.771 296.091C169.317 296.091 171.43 298.273 172.044 300.659H176.067C175.385 295.75 171.226 292.477 165.703 292.477C158.612 292.477 153.908 298.068 153.908 306.045C153.908 313.886 158.408 319.545 165.771 319.545ZM192.584 319.545C199.675 319.545 204.447 314.159 204.447 306.045C204.447 297.864 199.675 292.477 192.584 292.477C185.493 292.477 180.72 297.864 180.72 306.045C180.72 314.159 185.493 319.545 192.584 319.545ZM192.584 315.932C187.197 315.932 184.743 311.295 184.743 306.045C184.743 300.795 187.197 296.091 192.584 296.091C197.97 296.091 200.425 300.795 200.425 306.045C200.425 311.295 197.97 315.932 192.584 315.932ZM210.588 319H214.611V302.636C214.611 298.801 217.406 296.091 220.543 296.091C223.594 296.091 225.724 298.085 225.724 301.068V319H229.815V301.955C229.815 298.58 231.929 296.091 235.611 296.091C238.474 296.091 240.929 297.608 240.929 301.477V319H244.952V301.477C244.952 295.324 241.645 292.477 236.974 292.477C233.224 292.477 230.48 294.199 229.134 296.909H228.861C227.565 294.114 225.281 292.477 221.838 292.477C218.429 292.477 215.906 294.114 214.815 296.909H214.474V292.818H210.588V319ZM263.284 319.545C268.602 319.545 272.489 316.886 273.716 312.932L269.83 311.841C268.807 314.568 266.438 315.932 263.284 315.932C258.562 315.932 255.307 312.881 255.119 307.273H274.125V305.568C274.125 295.818 268.33 292.477 262.875 292.477C255.784 292.477 251.08 298.068 251.08 306.114C251.08 314.159 255.716 319.545 263.284 319.545ZM255.119 303.795C255.392 299.722 258.273 296.091 262.875 296.091C267.239 296.091 270.034 299.364 270.034 303.795H255.119ZM305.131 292.818H299.54V286.545H295.517V292.818H291.562V296.227H295.517V312.591C295.517 317.159 299.199 319.341 302.608 319.341C304.108 319.341 305.062 319.068 305.608 318.864L304.79 315.25C304.449 315.318 303.903 315.455 303.017 315.455C301.244 315.455 299.54 314.909 299.54 311.5V296.227H305.131V292.818ZM321.537 319.545C328.628 319.545 333.401 314.159 333.401 306.045C333.401 297.864 328.628 292.477 321.537 292.477C314.446 292.477 309.673 297.864 309.673 306.045C309.673 314.159 314.446 319.545 321.537 319.545ZM321.537 315.932C316.151 315.932 313.696 311.295 313.696 306.045C313.696 300.795 316.151 296.091 321.537 296.091C326.923 296.091 329.378 300.795 329.378 306.045C329.378 311.295 326.923 315.932 321.537 315.932ZM90.9716 352.131H98.0455C97.9432 345.909 92.8295 341.614 85.0568 341.614C77.4034 341.614 71.7955 345.841 71.8295 352.182C71.8125 357.33 75.4432 360.278 81.3409 361.693L85.142 362.648C88.9432 363.568 91.0568 364.659 91.0739 367.011C91.0568 369.568 88.6364 371.307 84.8864 371.307C81.0511 371.307 78.2898 369.534 78.0511 366.04H70.9091C71.0966 373.591 76.5 377.494 84.9716 377.494C93.4943 377.494 98.5057 373.42 98.5227 367.028C98.5057 361.216 94.125 358.131 88.0568 356.767L84.9205 356.017C81.8864 355.318 79.3466 354.193 79.3977 351.688C79.3977 349.438 81.392 347.784 85.0057 347.784C88.5341 347.784 90.6989 349.386 90.9716 352.131ZM103.351 377H110.612V350.818H103.351V377ZM106.999 347.443C109.163 347.443 110.936 345.79 110.936 343.761C110.936 341.75 109.163 340.097 106.999 340.097C104.851 340.097 103.078 341.75 103.078 343.761C103.078 345.79 104.851 347.443 106.999 347.443ZM138.213 358.284C137.565 353.46 133.679 350.477 127.065 350.477C120.366 350.477 115.952 353.58 115.969 358.625C115.952 362.545 118.423 365.085 123.537 366.108L128.071 367.011C130.355 367.472 131.395 368.307 131.429 369.619C131.395 371.17 129.707 372.278 127.168 372.278C124.577 372.278 122.855 371.17 122.412 369.04L115.27 369.415C115.952 374.426 120.213 377.511 127.151 377.511C133.935 377.511 138.793 374.051 138.81 368.886C138.793 365.102 136.321 362.835 131.241 361.795L126.503 360.841C124.065 360.312 123.162 359.477 123.179 358.216C123.162 356.648 124.935 355.625 127.185 355.625C129.707 355.625 131.207 357.006 131.565 358.693L138.213 358.284ZM157.308 350.818H152.382V344.545H145.121V350.818H141.541V356.273H145.121V369.909C145.087 375.04 148.581 377.58 153.848 377.358C155.723 377.29 157.053 376.915 157.786 376.676L156.643 371.273C156.286 371.341 155.518 371.511 154.837 371.511C153.388 371.511 152.382 370.966 152.382 368.955V356.273H157.308V350.818ZM173.689 377.511C180.166 377.511 184.53 374.358 185.553 369.5L178.837 369.057C178.104 371.051 176.229 372.091 173.808 372.091C170.178 372.091 167.876 369.688 167.876 365.784V365.767H185.706V363.773C185.706 354.875 180.32 350.477 173.399 350.477C165.695 350.477 160.7 355.949 160.7 364.028C160.7 372.33 165.626 377.511 173.689 377.511ZM167.876 361.267C168.03 358.284 170.297 355.898 173.518 355.898C176.672 355.898 178.854 358.148 178.871 361.267H167.876ZM190.445 377H197.706V361.284C197.706 358.386 199.547 356.46 201.967 356.46C204.354 356.46 205.956 358.097 205.956 360.67V377H212.996V361.011C212.996 358.301 214.547 356.46 217.189 356.46C219.507 356.46 221.246 357.909 221.246 360.824V377H228.49V359.392C228.49 353.716 225.115 350.477 220.24 350.477C216.405 350.477 213.422 352.438 212.348 355.438H212.075C211.24 352.403 208.564 350.477 204.967 350.477C201.439 350.477 198.763 352.352 197.672 355.438H197.365V350.818H190.445V377ZM252.852 342.091H245.472V377H252.852V342.091ZM266.05 361.864C266.067 358.489 268.078 356.511 271.01 356.511C273.925 356.511 275.68 358.42 275.663 361.625V377H282.925V360.33C282.925 354.227 279.345 350.477 273.891 350.477C270.004 350.477 267.192 352.386 266.016 355.438H265.709V350.818H258.788V377H266.05V361.864ZM302.727 350.818H297.528V349.062C297.528 347.29 298.244 346.25 300.375 346.25C301.244 346.25 302.131 346.438 302.71 346.625L303.989 341.17C303.085 340.898 301.091 340.455 298.858 340.455C293.932 340.455 290.267 343.233 290.267 348.926V350.818H286.568V356.273H290.267V377H297.528V356.273H302.727V350.818ZM318.055 377.511C325.999 377.511 330.942 372.074 330.942 364.011C330.942 355.898 325.999 350.477 318.055 350.477C310.112 350.477 305.169 355.898 305.169 364.011C305.169 372.074 310.112 377.511 318.055 377.511ZM318.089 371.886C314.425 371.886 312.55 368.528 312.55 363.96C312.55 359.392 314.425 356.017 318.089 356.017C321.686 356.017 323.561 359.392 323.561 363.96C323.561 368.528 321.686 371.886 318.089 371.886ZM335.663 377H342.925V362.188C342.925 358.966 345.277 356.75 348.482 356.75C349.487 356.75 350.868 356.92 351.55 357.142V350.699C350.902 350.545 349.999 350.443 349.266 350.443C346.334 350.443 343.93 352.148 342.976 355.386H342.703V350.818H335.663V377ZM355.304 377H362.565V361.284C362.565 358.386 364.406 356.46 366.827 356.46C369.213 356.46 370.815 358.097 370.815 360.67V377H377.855V361.011C377.855 358.301 379.406 356.46 382.048 356.46C384.366 356.46 386.105 357.909 386.105 360.824V377H393.349V359.392C393.349 353.716 389.974 350.477 385.099 350.477C381.264 350.477 378.281 352.438 377.207 355.438H376.935C376.099 352.403 373.423 350.477 369.827 350.477C366.298 350.477 363.622 352.352 362.531 355.438H362.224V350.818H355.304V377ZM406.551 377.494C410.42 377.494 412.926 375.807 414.205 373.369H414.409V377H421.295V359.341C421.295 353.102 416.011 350.477 410.182 350.477C403.909 350.477 399.784 353.477 398.778 358.25L405.494 358.795C405.989 357.057 407.54 355.778 410.148 355.778C412.619 355.778 414.034 357.023 414.034 359.17V359.273C414.034 360.96 412.244 361.182 407.693 361.625C402.511 362.102 397.858 363.841 397.858 369.688C397.858 374.869 401.557 377.494 406.551 377.494ZM408.631 372.483C406.398 372.483 404.795 371.443 404.795 369.449C404.795 367.403 406.483 366.398 409.04 366.04C410.625 365.818 413.216 365.443 414.085 364.864V367.642C414.085 370.386 411.818 372.483 408.631 372.483ZM448.713 358.284C448.065 353.46 444.179 350.477 437.565 350.477C430.866 350.477 426.452 353.58 426.469 358.625C426.452 362.545 428.923 365.085 434.037 366.108L438.571 367.011C440.855 367.472 441.895 368.307 441.929 369.619C441.895 371.17 440.207 372.278 437.668 372.278C435.077 372.278 433.355 371.17 432.912 369.04L425.77 369.415C426.452 374.426 430.713 377.511 437.651 377.511C444.435 377.511 449.293 374.051 449.31 368.886C449.293 365.102 446.821 362.835 441.741 361.795L437.003 360.841C434.565 360.312 433.662 359.477 433.679 358.216C433.662 356.648 435.435 355.625 437.685 355.625C440.207 355.625 441.707 357.006 442.065 358.693L448.713 358.284ZM453.882 377H461.143V350.818H453.882V377ZM457.53 347.443C459.695 347.443 461.467 345.79 461.467 343.761C461.467 341.75 459.695 340.097 457.53 340.097C455.382 340.097 453.609 341.75 453.609 343.761C453.609 345.79 455.382 347.443 457.53 347.443ZM478.206 377H485.587V365.682H491.791C499.82 365.682 504.49 360.892 504.49 353.92C504.49 346.983 499.905 342.091 491.979 342.091H478.206V377ZM485.587 359.767V348.125H490.564C494.825 348.125 496.888 350.443 496.888 353.92C496.888 357.381 494.825 359.767 490.598 359.767H485.587ZM520.658 377.511C527.135 377.511 531.499 374.358 532.521 369.5L525.805 369.057C525.072 371.051 523.197 372.091 520.777 372.091C517.146 372.091 514.845 369.688 514.845 365.784V365.767H532.675V363.773C532.675 354.875 527.288 350.477 520.368 350.477C512.663 350.477 507.669 355.949 507.669 364.028C507.669 372.33 512.595 377.511 520.658 377.511ZM514.845 361.267C514.999 358.284 517.266 355.898 520.487 355.898C523.641 355.898 525.822 358.148 525.839 361.267H514.845ZM549.345 377.511C555.822 377.511 560.186 374.358 561.209 369.5L554.493 369.057C553.76 371.051 551.885 372.091 549.464 372.091C545.834 372.091 543.533 369.688 543.533 365.784V365.767H561.362V363.773C561.362 354.875 555.976 350.477 549.055 350.477C541.351 350.477 536.357 355.949 536.357 364.028C536.357 372.33 541.283 377.511 549.345 377.511ZM543.533 361.267C543.686 358.284 545.953 355.898 549.175 355.898C552.328 355.898 554.51 358.148 554.527 361.267H543.533ZM566.101 377H573.362V362.188C573.362 358.966 575.714 356.75 578.919 356.75C579.925 356.75 581.305 356.92 581.987 357.142V350.699C581.339 350.545 580.436 350.443 579.703 350.443C576.771 350.443 574.368 352.148 573.413 355.386H573.141V350.818H566.101V377ZM72.0341 435H79.4148V422.625H84.8011L91.4148 435H99.5625L92.1477 421.432C96.1193 419.727 98.3182 416.267 98.3182 411.494C98.3182 404.557 93.733 400.091 85.8068 400.091H72.0341V435ZM79.4148 416.693V406.125H84.392C88.6534 406.125 90.7159 408.017 90.7159 411.494C90.7159 414.955 88.6534 416.693 84.4261 416.693H79.4148ZM114.908 435.511C121.385 435.511 125.749 432.358 126.771 427.5L120.055 427.057C119.322 429.051 117.447 430.091 115.027 430.091C111.396 430.091 109.095 427.688 109.095 423.784V423.767H126.925V421.773C126.925 412.875 121.538 408.477 114.618 408.477C106.913 408.477 101.919 413.949 101.919 422.028C101.919 430.33 106.845 435.511 114.908 435.511ZM109.095 419.267C109.249 416.284 111.516 413.898 114.737 413.898C117.891 413.898 120.072 416.148 120.089 419.267H109.095ZM155.322 408.818H147.635L142.214 427.551H141.942L136.504 408.818H128.834L137.987 435H146.169L155.322 408.818ZM159.038 435H166.3V408.818H159.038V435ZM162.686 405.443C164.851 405.443 166.624 403.79 166.624 401.761C166.624 399.75 164.851 398.097 162.686 398.097C160.538 398.097 158.766 399.75 158.766 401.761C158.766 403.79 160.538 405.443 162.686 405.443ZM184.048 435.511C190.526 435.511 194.889 432.358 195.912 427.5L189.196 427.057C188.463 429.051 186.588 430.091 184.168 430.091C180.537 430.091 178.236 427.688 178.236 423.784V423.767H196.065V421.773C196.065 412.875 190.679 408.477 183.759 408.477C176.054 408.477 171.06 413.949 171.06 422.028C171.06 430.33 175.986 435.511 184.048 435.511ZM178.236 419.267C178.389 416.284 180.656 413.898 183.878 413.898C187.031 413.898 189.213 416.148 189.23 419.267H178.236ZM205.781 435H213.452L217.952 418.534H218.276L222.776 435H230.463L237.571 408.818H230.241L226.253 426.307H226.031L221.736 408.818H214.526L210.298 426.409H210.06L206.003 408.818H198.656L205.781 435ZM252.69 435H260.071V425.08L263.702 420.648L273.264 435H282.094L268.986 415.722L281.94 400.091H273.094L260.531 415.483H260.071V400.091H252.69V435ZM293.114 435.494C296.983 435.494 299.489 433.807 300.767 431.369H300.972V435H307.858V417.341C307.858 411.102 302.574 408.477 296.744 408.477C290.472 408.477 286.347 411.477 285.341 416.25L292.057 416.795C292.551 415.057 294.102 413.778 296.71 413.778C299.182 413.778 300.597 415.023 300.597 417.17V417.273C300.597 418.96 298.807 419.182 294.256 419.625C289.074 420.102 284.42 421.841 284.42 427.688C284.42 432.869 288.119 435.494 293.114 435.494ZM295.193 430.483C292.96 430.483 291.358 429.443 291.358 427.449C291.358 425.403 293.045 424.398 295.602 424.04C297.188 423.818 299.778 423.443 300.648 422.864V425.642C300.648 428.386 298.381 430.483 295.193 430.483ZM313.491 435H320.753V420.188C320.753 416.966 323.105 414.75 326.31 414.75C327.315 414.75 328.696 414.92 329.378 415.142V408.699C328.73 408.545 327.827 408.443 327.094 408.443C324.162 408.443 321.759 410.148 320.804 413.386H320.531V408.818H313.491V435ZM338.412 444.818C343.815 444.818 346.679 442.057 348.162 437.83L358.338 408.852L350.651 408.818L345.179 428.045H344.906L339.486 408.818H331.849L341.241 435.75L340.815 436.858C339.861 439.312 338.037 439.432 335.48 438.648L333.844 444.068C334.884 444.511 336.571 444.818 338.412 444.818ZM368.77 435.494C372.639 435.494 375.145 433.807 376.423 431.369H376.628V435H383.514V417.341C383.514 411.102 378.23 408.477 372.401 408.477C366.128 408.477 362.003 411.477 360.997 416.25L367.713 416.795C368.207 415.057 369.759 413.778 372.366 413.778C374.838 413.778 376.253 415.023 376.253 417.17V417.273C376.253 418.96 374.463 419.182 369.912 419.625C364.73 420.102 360.077 421.841 360.077 427.688C360.077 432.869 363.776 435.494 368.77 435.494ZM370.849 430.483C368.616 430.483 367.014 429.443 367.014 427.449C367.014 425.403 368.702 424.398 371.259 424.04C372.844 423.818 375.435 423.443 376.304 422.864V425.642C376.304 428.386 374.037 430.483 370.849 430.483ZM407.774 400.091H400.393V435H407.774V400.091ZM420.972 400.091H413.71V435H420.972V400.091ZM426.788 435H434.05V419.284C434.05 416.386 435.891 414.46 438.311 414.46C440.697 414.46 442.3 416.097 442.3 418.67V435H449.339V419.011C449.339 416.301 450.891 414.46 453.533 414.46C455.851 414.46 457.589 415.909 457.589 418.824V435H464.834V417.392C464.834 411.716 461.459 408.477 456.584 408.477C452.749 408.477 449.766 410.438 448.692 413.438H448.419C447.584 410.403 444.908 408.477 441.311 408.477C437.783 408.477 435.107 410.352 434.016 413.438H433.709V408.818H426.788V435ZM470.57 435H477.831V408.818H470.57V435ZM474.217 405.443C476.382 405.443 478.155 403.79 478.155 401.761C478.155 399.75 476.382 398.097 474.217 398.097C472.07 398.097 470.297 399.75 470.297 401.761C470.297 403.79 472.07 405.443 474.217 405.443ZM491.114 435.494C494.983 435.494 497.489 433.807 498.767 431.369H498.972V435H505.858V417.341C505.858 411.102 500.574 408.477 494.744 408.477C488.472 408.477 484.347 411.477 483.341 416.25L490.057 416.795C490.551 415.057 492.102 413.778 494.71 413.778C497.182 413.778 498.597 415.023 498.597 417.17V417.273C498.597 418.96 496.807 419.182 492.256 419.625C487.074 420.102 482.42 421.841 482.42 427.688C482.42 432.869 486.119 435.494 491.114 435.494ZM493.193 430.483C490.96 430.483 489.358 429.443 489.358 427.449C489.358 425.403 491.045 424.398 493.602 424.04C495.188 423.818 497.778 423.443 498.648 422.864V425.642C498.648 428.386 496.381 430.483 493.193 430.483ZM518.753 419.864C518.77 416.489 520.832 414.511 523.798 414.511C526.747 414.511 528.486 416.403 528.469 419.625V435H535.73V418.33C535.747 412.193 532.134 408.477 526.679 408.477C522.707 408.477 520.048 410.352 518.855 413.438H518.548V400.091H511.491V435H518.753V419.864Z" fill="white"/>
</svg>
